# xmcd
#
# Track frame offsets:
#	150
#	16711
#	42690
#	58303
#	76118
#	91091
#	103333
#	117358
#	133473
#	153851
#
# Disc length: 2359 seconds
#
# Revision: 0
# Processed by: cddbd v1.5.2PL0 Copyright (c) Steve Scherf et al.
# Submitted via: audiograbber 1.83.01
#
DISCID=8109350a
DTITLE=Mr. John Kampen - Everybody loves..
DYEAR=1900
DGENRE=Country
TTITLE0=Everybody loves somebody sometimes
TTITLE1=Nikita
TTITLE2=Release me  - (let me go)
TTITLE3=My Way
TTITLE4=New York, New York
TTITLE5=Wer Liebe sucht
TTITLE6=Green,Green Grass of Home
TTITLE7=The Land of Entchaintment
TTITLE8=Give Love a Chance
TTITLE9=Plaisir d´Amour
EXTD=
EXTT0=
EXTT1=
EXTT2=
EXTT3=
EXTT4=
EXTT5=
EXTT6=
EXTT7=
EXTT8=
EXTT9=
PLAYORDER=
